<svg height="800px" width="800px" version="1.1" id="Layer_1" xmlns="http://www.w3.org/2000/svg" xmlns:xlink="http://www.w3.org/1999/xlink" 
	 viewBox="0 0 512 512" xml:space="preserve">
<path style="fill:#6D6E71;" d="M481.174,216.64L372.426,105.811h-50.557c-9.854,0-17.843-7.989-17.843-17.843
	s7.989-17.843,17.843-17.843h58.047c4.79,0,9.381,1.927,12.737,5.346l113.994,116.174
	C523.159,208.472,497.71,233.491,481.174,216.64z"/>
<path style="fill:#808285;" d="M5.352,191.645L119.346,75.471c3.356-3.42,7.945-5.346,12.737-5.346h58.047
	c9.854,0,17.843,7.989,17.843,17.843s-7.989,17.843-17.843,17.843h-50.557L30.823,216.64
	C14.279,233.499-11.154,208.466,5.352,191.645z"/>
<path style="fill:#28C3E4;" d="M256,372.771C186.689,494.439,0.245,445.119,0.245,305.269v-25.125
	c0-9.854,7.989-17.843,17.843-17.843h475.822c9.854,0,17.843,7.989,17.843,17.843v25.125C511.754,445.046,325.31,494.44,256,372.771
	z"/>
<path style="fill:#28B6E4;" d="M493.911,262.301H256v110.472c69.311,121.668,255.754,72.274,255.754-67.504v-25.125
	C511.754,270.29,503.765,262.301,493.911,262.301z"/>
<path style="fill:#28D2E4;" d="M511.754,297.988H0.245v-93.845c0-9.854,7.989-17.843,17.843-17.843h475.822
	c9.854,0,17.843,7.989,17.843,17.843V297.988z"/>
<path style="fill:#28C3E4;" d="M511.754,204.142c0-9.854-7.989-17.843-17.843-17.843H256v111.687h255.754V204.142z"/>
</svg>